M48
; DRILL file {KiCad 7.0.2} date Sat May 13 21:21:19 2023
; FORMAT={-:-/ absolute / inch / decimal}
; #@! TF.CreationDate,2023-05-13T21:21:19-04:00
; #@! TF.GenerationSoftware,Kicad,Pcbnew,7.0.2
; #@! TF.FileFunction,Plated,1,2,PTH
FMAT,2
INCH
; #@! TA.AperFunction,Plated,PTH,ViaDrill
T1C0.0118
; #@! TA.AperFunction,Plated,PTH,ComponentDrill
T2C0.0320
; #@! TA.AperFunction,Plated,PTH,ComponentDrill
T3C0.0380
; #@! TA.AperFunction,Plated,PTH,ComponentDrill
T4C0.0394
; #@! TA.AperFunction,Plated,PTH,ComponentDrill
T5C0.0398
; #@! TA.AperFunction,Plated,PTH,ComponentDrill
T6C0.0440
; #@! TA.AperFunction,Plated,PTH,ComponentDrill
T7C0.0472
; #@! TA.AperFunction,Plated,PTH,ComponentDrill
T8C0.0476
%
G90
G05
T1
X3.494Y-4.736
X3.504Y-4.586
X3.51Y-4.376
X3.554Y-4.41
X3.678Y-4.572
X3.8Y-4.53
X3.8Y-4.72
X3.8Y-4.93
X3.954Y-4.626
X4.0Y-4.83
X4.036Y-4.624
X4.408Y-4.572
X4.442Y-4.734
X4.48Y-4.582
X4.57Y-5.0
X4.61Y-4.87
X4.68Y-4.76
X4.68Y-4.97
X4.76Y-4.52
X4.76Y-4.72
X4.76Y-4.93
X4.894Y-4.544
X4.95Y-4.81
X4.97Y-4.85
X4.984Y-4.544
X5.0Y-4.002
X5.376Y-4.824
X5.512Y-3.124
X5.554Y-3.836
X5.856Y-4.84
X5.866Y-4.774
X5.894Y-4.002
X5.9Y-4.35
X5.926Y-4.118
X5.956Y-3.892
X6.082Y-4.838
X6.498Y-4.834
X6.592Y-4.536
X6.6Y-4.81
X6.666Y-4.54
X6.74Y-4.61
X6.752Y-5.086
X7.25Y-4.518
X7.27Y-4.32
X7.3Y-4.52
X7.3Y-4.77
X7.4Y-4.52
X7.4Y-4.77
X7.5Y-4.88
X7.55Y-4.518
X7.586Y-4.622
T2
X6.1Y-3.3
X6.2Y-3.15
X6.3Y-3.3
X6.4Y-3.15
X6.45Y-3.3
X6.55Y-3.15
X6.65Y-3.3
X6.75Y-3.15
T3
X6.4Y-3.8
X6.4Y-3.9
X6.4Y-4.0
X6.4Y-4.1
X6.4Y-4.2
X6.4Y-4.3
X6.4Y-4.4
X6.5Y-3.8
X6.5Y-4.4
X6.6Y-3.8
X6.6Y-4.4
X6.7Y-3.8
X6.7Y-4.4
X6.8Y-3.8
X6.8Y-4.4
X6.9Y-3.8
X6.9Y-4.4
X7.0Y-3.8
X7.0Y-4.4
X7.1Y-3.8
X7.1Y-4.4
X7.2Y-3.8
X7.2Y-4.4
X7.3Y-3.8
X7.3Y-4.4
X7.4Y-3.8
X7.4Y-4.4
X7.5Y-3.8
X7.5Y-4.4
X7.6Y-3.8
X7.6Y-4.4
X7.7Y-3.8
X7.7Y-4.4
T4
X7.0Y-4.7
X7.1Y-4.7
X7.2Y-4.7
T5
X3.55Y-5.4
X3.65Y-5.4
X3.75Y-5.4
X3.85Y-5.4
X4.15Y-5.4
X4.25Y-5.4
X4.35Y-5.4
X4.45Y-5.4
X4.75Y-5.4
X4.85Y-5.4
X4.95Y-5.4
X5.05Y-5.4
X5.35Y-5.4
X5.45Y-5.4
X5.55Y-5.4
X5.65Y-5.4
X5.95Y-5.4
X6.05Y-5.4
X6.15Y-5.4
X6.25Y-5.4
X6.55Y-5.4
X6.65Y-5.4
X6.75Y-5.4
X6.85Y-5.4
X7.15Y-5.4
X7.25Y-5.4
X7.35Y-5.4
X7.45Y-5.4
T6
X3.875Y-3.0
X3.975Y-3.0
X4.075Y-3.0
X4.175Y-3.0
X5.15Y-3.0
X5.25Y-3.0
X5.35Y-3.0
X5.45Y-3.0
T7
X6.1Y-2.9
X6.2Y-2.9
X6.3Y-2.9
X6.4Y-2.9
T8
X3.55Y-5.2
X3.65Y-5.2
X3.75Y-5.2
X3.85Y-5.2
X4.15Y-5.2
X4.25Y-5.2
X4.35Y-5.2
X4.45Y-5.2
X4.75Y-5.2
X4.85Y-5.2
X4.95Y-5.2
X5.05Y-5.2
X5.35Y-5.2
X5.45Y-5.2
X5.55Y-5.2
X5.65Y-5.2
X5.95Y-5.2
X6.05Y-5.2
X6.15Y-5.2
X6.25Y-5.2
X6.55Y-5.2
X6.65Y-5.2
X6.75Y-5.2
X6.85Y-5.2
X7.15Y-5.2
X7.25Y-5.2
X7.35Y-5.2
X7.45Y-5.2
T0
M30
